<?xml version="1.0" encoding="utf-8"?>
<!-- Generator: Adobe Illustrator 25.1.0, SVG Export Plug-In . SVG Version: 6.00 Build 0)  -->
<svg version="1.1" id="Ebene_1" xmlns="http://www.w3.org/2000/svg" xmlns:xlink="http://www.w3.org/1999/xlink" x="0px" y="0px"
	 viewBox="0 0 30 35" style="enable-background:new 0 0 30 35;" xml:space="preserve">
<path style="fill:#FFFFFF;" d="M19.9,16.6c0,1-0.8,1.9-1.7,1.9c-1,0-1.7-0.9-1.7-1.9s0.8-1.9,1.7-1.9C19.1,14.8,19.9,15.6,19.9,16.6
	z M11.9,14.8c-1,0-1.7,0.9-1.7,1.9s0.8,1.9,1.7,1.9c1,0,1.7-0.9,1.7-1.9C13.7,15.6,12.9,14.8,11.9,14.8z M30,4v30.5
	c-4.3-3.8-2.9-2.5-8-7.2l0.9,3.1H3.5C1.6,30.5,0,28.9,0,27V4c0-1.9,1.6-3.5,3.5-3.5h23C28.4,0.5,30,2.1,30,4z M25.1,20.1
	c0-5.5-2.5-9.9-2.5-9.9c-2.5-1.8-4.8-1.8-4.8-1.8l-0.2,0.3c2.9,0.9,4.3,2.2,4.3,2.2C17.8,8.6,13,8.6,9.1,10.4c-0.6,0.3-1,0.5-1,0.5
	s1.4-1.3,4.5-2.2l-0.2-0.2c0,0-2.3-0.1-4.8,1.8c0,0-2.5,4.4-2.5,9.9c0,0,1.4,2.5,5.2,2.6c0,0,0.6-0.8,1.1-1.4c-2.2-0.6-3-2-3-2
	c0.3,0.2,0.7,0.4,0.7,0.4c2.9,1.6,7,2.1,10.7,0.6c0.6-0.2,1.3-0.5,2-1c0,0-0.9,1.4-3.1,2c0.5,0.6,1.1,1.4,1.1,1.4
	C23.7,22.6,25.1,20.1,25.1,20.1z"/>
</svg>
