<?xml version="1.0" encoding="utf-8"?>
<!-- Generator: Adobe Illustrator 25.1.0, SVG Export Plug-In . SVG Version: 6.00 Build 0)  -->
<svg version="1.1" id="Ebene_1" xmlns="http://www.w3.org/2000/svg" xmlns:xlink="http://www.w3.org/1999/xlink" x="0px" y="0px"
	 viewBox="0 0 30 31" style="enable-background:new 0 0 30 31;" xml:space="preserve">
<path style="fill:#FFFFFF;" d="M26.8,0.6H3.2C1.4,0.6,0,2.1,0,3.9v23.6c0,1.8,1.4,3.2,3.2,3.2h23.6c1.8,0,3.2-1.4,3.2-3.2V3.9
	C30,2.1,28.6,0.6,26.8,0.6z M18.6,26.3c-0.6,0.1-0.8-0.2-0.8-0.5c0-0.4,0-2.2,0-3.7c0-1-0.3-1.7-0.8-2.1c2.5-0.3,5.1-0.6,5.1-4.9
	c0-1.2-0.4-1.8-1.1-2.6c0.1-0.3,0.5-1.5-0.1-3c-0.9-0.3-3.1,1.2-3.1,1.2c-0.9-0.2-1.8-0.4-2.8-0.4c-0.9,0-1.9,0.1-2.8,0.4
	c0,0-2.1-1.5-3.1-1.2c-0.6,1.5-0.2,2.7-0.1,3c-0.7,0.8-1,1.4-1,2.6c0,4.3,2.5,4.6,5,4.9c-0.3,0.3-0.6,0.8-0.7,1.5
	c-0.6,0.3-2.3,0.8-3.2-0.9c-0.6-1.1-1.7-1.1-1.7-1.1c-1.1,0-0.1,0.7-0.1,0.7c0.7,0.3,1.2,1.6,1.2,1.6c0.6,2,3.8,1.3,3.8,1.3
	c0,0.9,0,2.4,0,2.7s-0.2,0.6-0.8,0.5C7.1,24.9,4,20.7,4,15.7C4,9.6,8.7,4.9,14.9,4.9C21,4.9,26,9.6,26,15.7
	C26,20.7,23,24.9,18.6,26.3z M12.2,22c0,0.1-0.1,0.2-0.2,0.2s-0.2,0-0.3-0.1c0-0.1,0.1-0.2,0.2-0.2C12,21.9,12.1,21.9,12.2,22z
	 M11.4,22.2c0,0.1-0.1,0.2-0.2,0.2c-0.1,0-0.2-0.1-0.2-0.2c0-0.1,0.1-0.2,0.2-0.2C11.2,22,11.4,22.1,11.4,22.2z M10.4,22.1
	c0,0.1-0.2,0.1-0.3,0.1C10,22.2,10,22.1,10,22s0.2-0.1,0.3-0.1C10.4,21.9,10.5,22,10.4,22.1z M9.6,21.8c-0.1,0.1-0.2,0.1-0.3,0
	c-0.1-0.1-0.1-0.2-0.1-0.3c0.1-0.1,0.2-0.1,0.3,0S9.7,21.7,9.6,21.8z M9,21.1c-0.1,0-0.2,0-0.2-0.1c-0.1-0.1-0.1-0.2,0-0.3
	c0.1-0.1,0.2,0,0.2,0.1C9.1,21,9.1,21.1,9,21.1z M8.6,20.3c0,0,0,0.1,0,0.2c-0.1,0.1-0.2,0-0.2,0c-0.1-0.1-0.1-0.2,0-0.2
	C8.5,20.2,8.6,20.3,8.6,20.3z M8.1,20c0,0.1-0.1,0.1-0.2,0c-0.1,0-0.1-0.1-0.1-0.2c0,0,0.1-0.1,0.2,0C8.1,19.9,8.2,19.9,8.1,20z"/>
</svg>
