<?xml version="1.0" encoding="utf-8"?>
<!-- Generator: Adobe Illustrator 25.2.1, SVG Export Plug-In . SVG Version: 6.00 Build 0)  -->
<svg version="1.1" id="Ebene_1" xmlns="http://www.w3.org/2000/svg" xmlns:xlink="http://www.w3.org/1999/xlink" x="0px" y="0px"
	 viewBox="0 0 12 12" style="enable-background:new 0 0 12 12;" xml:space="preserve">
<g>
	<path style="fill:#FFFFFF;" d="M6,12c-3.3,0-6-2.7-6-6s2.7-6,6-6s6,2.7,6,6S9.3,12,6,12z M6,1C3.2,1,1,3.2,1,6s2.2,5,5,5s5-2.2,5-5
		S8.8,1,6,1z"/>
	<path style="fill:#FFFFFF;" d="M6,4.4c0.4,0,0.7-0.3,0.7-0.7C6.7,3.3,6.4,3,6,3C5.6,3,5.2,3.3,5.2,3.7C5.2,4.1,5.6,4.4,6,4.4z
		 M6.7,8.3V4.7L5,4.9v0.6l0.4,0v2.8L5,8.4V9h2V8.4L6.7,8.3z"/>

</svg>
