<?xml version="1.0" encoding="utf-8"?>
<!-- Generator: Adobe Illustrator 25.1.0, SVG Export Plug-In . SVG Version: 6.00 Build 0)  -->
<svg version="1.1" id="Ebene_1" xmlns="http://www.w3.org/2000/svg" xmlns:xlink="http://www.w3.org/1999/xlink" x="0px" y="0px"
	 viewBox="0 0 30 31" style="enable-background:new 0 0 30 31;" xml:space="preserve">
<path style="fill-rule:evenodd;clip-rule:evenodd;fill:#FFFFFF;" d="M3,0.5c-1.7,0-3,1.3-3,3v24c0,1.7,1.3,3,3,3h24c1.7,0,3-1.3,3-3
	v-24c0-1.7-1.3-3-3-3H3z M7.1,10.1c0.2,0.2,0.3,0.4,0.3,0.7v8.8c0.1,0.3,0,0.6-0.3,0.9L5,23v0.3h6V23l-2.1-2.5
	c-0.2-0.2-0.3-0.6-0.3-0.9v-7.6l5.2,11.4h0.6l4.5-11.4V21c0,0.2,0,0.3-0.2,0.4L17.1,23v0.3H25V23l-1.6-1.5c-0.1-0.1-0.2-0.3-0.2-0.4
	V9.8c0-0.2,0-0.3,0.2-0.4L25,7.8V7.5h-5.5l-3.9,9.8L11,7.5H5.3v0.3L7.1,10.1z"/>
</svg>
