<?xml version="1.0" encoding="utf-8"?>
<!-- Generator: Adobe Illustrator 25.1.0, SVG Export Plug-In . SVG Version: 6.00 Build 0)  -->
<svg version="1.1" id="Ebene_1" xmlns="http://www.w3.org/2000/svg" xmlns:xlink="http://www.w3.org/1999/xlink" x="0px" y="0px"
	 viewBox="0 0 30 31" style="enable-background:new 0 0 30 31;" xml:space="preserve">
<path style="fill-rule:evenodd;fill:#FFFFFF;" d="M3,0.5c-1.7,0-3,1.3-3,3v24c0,1.7,1.3,3,3,3h24c1.7,0,3-1.3,3-3
	v-24c0-1.7-1.3-3-3-3H3z M21.9,23.3l3-14.2c0.3-1.3-0.5-1.7-1.3-1.4L5.9,14.4c-1.2,0.5-1.2,1.2-0.2,1.5l4.5,1.4l10.5-6.6
	c0.5-0.3,0.9-0.1,0.6,0.2l-8.5,7.7l-0.3,4.7c0.5,0,0.7-0.2,0.9-0.5l2.2-2.1l4.6,3.4C21.1,24.5,21.7,24.3,21.9,23.3z"/>
</svg>
