<?xml version="1.0" encoding="utf-8"?>
<!-- Generator: Adobe Illustrator 25.2.1, SVG Export Plug-In . SVG Version: 6.00 Build 0)  -->
<svg version="1.1" id="Ebene_1" xmlns="http://www.w3.org/2000/svg" xmlns:xlink="http://www.w3.org/1999/xlink" x="0px" y="0px"
	 viewBox="0 0 12 12" style="enable-background:new 0 0 12 12;" xml:space="preserve">
<path style="fill:#FFFFFF;" d="M8.4,6.8L7.1,8.1l3.6,3.9l1.3-1.4L8.4,6.8z"/>
<path style="fill:#FFFFFF;" d="M9.3,4.8c1.2,0,2.1-1,2.1-2.3c0-0.4-0.1-0.7-0.2-1L9.6,3.2l-0.9-1l1.6-1.7c-0.3-0.2-0.6-0.3-1-0.3
	c-1.2,0-2.1,1-2.1,2.3c0,0.3,0,0.5,0.1,0.8L6.2,4.5L5.1,3.3l0.4-0.5L4.7,1.9L6,0.6c-0.7-0.8-1.9-0.8-2.6,0L1.3,2.9l0.9,0.9H0.4
	L0,4.2l2.1,2.3l0.4-0.5V4.2l0.9,0.9l0.4-0.5l1.1,1.2l-4.5,4.8L1.7,12l6.9-7.4C8.8,4.7,9.1,4.8,9.3,4.8z"/>
</svg>
